<svg xmlns="http://www.w3.org/2000/svg" width="48" height="48" viewBox="0 0 48 48"><defs><linearGradient id="g" x1="0" y1="0" x2="0" y2="1"><stop offset="0" stop-color="#6D6FF2"/><stop offset="1" stop-color="#4338CA"/></linearGradient></defs><rect x="2" y="2" width="44" height="44" rx="12" fill="url(#g)"/><rect x="2.75" y="2.75" width="42.5" height="42.5" rx="11.3" fill="none" stroke="#ffffff" stroke-opacity="0.18" stroke-width="1.2"/><g fill="none" stroke="#fff" stroke-width="2.6" stroke-linecap="round" stroke-linejoin="round"><path d="M20 11 C17 11 17 16 17 18.5 C17 21 14 24 14 24 C17 24 17 27 17 29.5 C17 32 17 37 20 37"/><path d="M28 11 C31 11 31 16 31 18.5 C31 21 34 24 34 24 C31 24 31 27 31 29.5 C31 32 31 37 28 37"/></g></svg>