<svg xmlns="http://www.w3.org/2000/svg" width="48" height="48" viewBox="0 0 48 48"><defs><linearGradient id="g" x1="0" y1="0" x2="0" y2="1"><stop offset="0" stop-color="#E0875F"/><stop offset="1" stop-color="#C15F3C"/></linearGradient></defs><rect x="2" y="2" width="44" height="44" rx="12" fill="url(#g)"/><rect x="2.75" y="2.75" width="42.5" height="42.5" rx="11.3" fill="none" stroke="#ffffff" stroke-opacity="0.18" stroke-width="1.2"/><line x1="29.00" y1="24.00" x2="39.00" y2="24.00" stroke="#fff" stroke-width="3.2" stroke-linecap="round"/><line x1="28.33" y1="26.50" x2="36.99" y2="31.50" stroke="#fff" stroke-width="3.2" stroke-linecap="round"/><line x1="26.50" y1="28.33" x2="31.50" y2="36.99" stroke="#fff" stroke-width="3.2" stroke-linecap="round"/><line x1="24.00" y1="29.00" x2="24.00" y2="39.00" stroke="#fff" stroke-width="3.2" stroke-linecap="round"/><line x1="21.50" y1="28.33" x2="16.50" y2="36.99" stroke="#fff" stroke-width="3.2" stroke-linecap="round"/><line x1="19.67" y1="26.50" x2="11.01" y2="31.50" stroke="#fff" stroke-width="3.2" stroke-linecap="round"/><line x1="19.00" y1="24.00" x2="9.00" y2="24.00" stroke="#fff" stroke-width="3.2" stroke-linecap="round"/><line x1="19.67" y1="21.50" x2="11.01" y2="16.50" stroke="#fff" stroke-width="3.2" stroke-linecap="round"/><line x1="21.50" y1="19.67" x2="16.50" y2="11.01" stroke="#fff" stroke-width="3.2" stroke-linecap="round"/><line x1="24.00" y1="19.00" x2="24.00" y2="9.00" stroke="#fff" stroke-width="3.2" stroke-linecap="round"/><line x1="26.50" y1="19.67" x2="31.50" y2="11.01" stroke="#fff" stroke-width="3.2" stroke-linecap="round"/><line x1="28.33" y1="21.50" x2="36.99" y2="16.50" stroke="#fff" stroke-width="3.2" stroke-linecap="round"/></svg>