<?xml version="1.0" encoding="UTF-8"?>
<svg xmlns="http://www.w3.org/2000/svg" viewBox="0 0 16 16" width="16" height="16">
  <g fill="#f0f0f0" fill-rule="evenodd">
    <!-- Calculator body with display area cut out -->
    <path d="M3.5,1 H12.5 A1.5,1.5 0 0 1 14,2.5 V13.5
             A1.5,1.5 0 0 1 12.5,15 H3.5
             A1.5,1.5 0 0 1 2,13.5 V2.5
             A1.5,1.5 0 0 1 3.5,1 Z
             M4,3 H12 V5.5 H4 Z"/>
    <!-- Button grid: 3 rows × 4 cols -->
    <rect x="4"   y="7"    width="1.4" height="1.4" rx="0.2"/>
    <rect x="6.2" y="7"    width="1.4" height="1.4" rx="0.2"/>
    <rect x="8.4" y="7"    width="1.4" height="1.4" rx="0.2"/>
    <rect x="10.6" y="7"   width="1.4" height="1.4" rx="0.2"/>

    <rect x="4"   y="9.2"  width="1.4" height="1.4" rx="0.2"/>
    <rect x="6.2" y="9.2"  width="1.4" height="1.4" rx="0.2"/>
    <rect x="8.4" y="9.2"  width="1.4" height="1.4" rx="0.2"/>
    <rect x="10.6" y="9.2" width="1.4" height="1.4" rx="0.2"/>

    <rect x="4"   y="11.4" width="1.4" height="1.4" rx="0.2"/>
    <rect x="6.2" y="11.4" width="1.4" height="1.4" rx="0.2"/>
    <rect x="8.4" y="11.4" width="1.4" height="1.4" rx="0.2"/>
    <rect x="10.6" y="11.4" width="1.4" height="1.4" rx="0.2"/>
  </g>
</svg>
