<?xml version="1.0" encoding="UTF-8"?>
<svg xmlns="http://www.w3.org/2000/svg" viewBox="0 0 16 16" width="16" height="16">
  <!-- Clipboard with a stack of pages (history) — symbolic / monochrome -->
  <g fill="#f0f0f0" fill-rule="evenodd">
    <!-- Back page -->
    <path d="M3.5,3 H10.5 A1,1 0 0 1 11.5,4 V13 A1,1 0 0 1 10.5,14 H3.5
             A1,1 0 0 1 2.5,13 V4 A1,1 0 0 1 3.5,3 Z" opacity="0.45"/>
    <!-- Front clipboard body -->
    <path d="M5.5,2 H10.5 A1,1 0 0 1 11.5,3 V12
             A1,1 0 0 1 10.5,13 H5.5 A1,1 0 0 1 4.5,12 V3
             A1,1 0 0 1 5.5,2 Z
             M6,5 H10 V5.7 H6 Z
             M6,7 H10 V7.7 H6 Z
             M6,9 H9  V9.7 H6 Z"/>
    <!-- Clip on top -->
    <rect x="6.5" y="1" width="3" height="2" rx="0.5"/>
  </g>
</svg>
