<?xml version="1.0" encoding="UTF-8"?>
<svg xmlns="http://www.w3.org/2000/svg" viewBox="0 0 16 16" width="16" height="16">
  <g fill="none" stroke="#f0f0f0" stroke-width="1.4" stroke-linecap="round" stroke-linejoin="round">
    <!-- Left brace { -->
    <path d="M5.5,2 C4.5,2 4,2.5 4,4 V6.5 C4,7.4 3.4,8 2.5,8 C3.4,8 4,8.6 4,9.5 V12 C4,13.5 4.5,14 5.5,14"/>
    <!-- Right brace } -->
    <path d="M10.5,2 C11.5,2 12,2.5 12,4 V6.5 C12,7.4 12.6,8 13.5,8 C12.6,8 12,8.6 12,9.5 V12 C12,13.5 11.5,14 10.5,14"/>
  </g>
  <!-- Three dots inside, representing key-value content -->
  <g fill="#f0f0f0">
    <circle cx="6.6" cy="8" r="0.7"/>
    <circle cx="8"   cy="8" r="0.7"/>
    <circle cx="9.4" cy="8" r="0.7"/>
  </g>
</svg>
